<mxfile host="65bd71144e">
    <diagram id="kGHAL7rnWdsVZRTodxXq" name="Page-1">
        <mxGraphModel dx="884" dy="599" grid="1" gridSize="10" guides="1" tooltips="1" connect="1" arrows="1" fold="1" page="1" pageScale="1" pageWidth="1169" pageHeight="827" math="0" shadow="0">
            <root>
                <mxCell id="0"/>
                <mxCell id="1" parent="0"/>
                <mxCell id="2" value="Camera" style="shape=umlLifeline;perimeter=lifelinePerimeter;whiteSpace=wrap;html=1;container=1;collapsible=0;recursiveResize=0;outlineConnect=0;" parent="1" vertex="1">
                    <mxGeometry x="385" y="80" width="130" height="520" as="geometry"/>
                </mxCell>
                <mxCell id="9" value="" style="html=1;points=[];perimeter=orthogonalPerimeter;fillColor=strokeColor;" parent="2" vertex="1">
                    <mxGeometry x="62.5" y="90" width="5" height="20" as="geometry"/>
                </mxCell>
                <mxCell id="11" value="" style="html=1;points=[];perimeter=orthogonalPerimeter;fillColor=strokeColor;" parent="2" vertex="1">
                    <mxGeometry x="62.5" y="120" width="5" height="20" as="geometry"/>
                </mxCell>
                <mxCell id="16" value="" style="html=1;points=[];perimeter=orthogonalPerimeter;fillColor=strokeColor;" parent="2" vertex="1">
                    <mxGeometry x="62.5" y="150" width="5" height="20" as="geometry"/>
                </mxCell>
                <mxCell id="19" value="" style="html=1;points=[];perimeter=orthogonalPerimeter;fillColor=strokeColor;" parent="2" vertex="1">
                    <mxGeometry x="62.5" y="180" width="5" height="20" as="geometry"/>
                </mxCell>
                <mxCell id="20" value="" style="html=1;points=[];perimeter=orthogonalPerimeter;fillColor=strokeColor;" parent="2" vertex="1">
                    <mxGeometry x="62.5" y="210" width="5" height="20" as="geometry"/>
                </mxCell>
                <mxCell id="25" value="" style="html=1;points=[];perimeter=orthogonalPerimeter;fillColor=strokeColor;" parent="2" vertex="1">
                    <mxGeometry x="62.5" y="240" width="5" height="20" as="geometry"/>
                </mxCell>
                <mxCell id="28" value="Â²" style="html=1;points=[];perimeter=orthogonalPerimeter;fillColor=strokeColor;" parent="2" vertex="1">
                    <mxGeometry x="62.5" y="280" width="5" height="80" as="geometry"/>
                </mxCell>
                <mxCell id="31" value="" style="html=1;points=[];perimeter=orthogonalPerimeter;fillColor=#cdeb8b;strokeColor=none;" parent="2" vertex="1">
                    <mxGeometry x="52.5" y="305" width="10" height="40" as="geometry"/>
                </mxCell>
                <mxCell id="32" value="Activate&amp;nbsp;&lt;br&gt;Wifi" style="edgeStyle=orthogonalEdgeStyle;html=1;align=left;spacingLeft=2;endArrow=block;rounded=0;entryX=-0.003;entryY=-0.006;entryDx=0;entryDy=0;entryPerimeter=0;exitX=-0.171;exitY=0.072;exitDx=0;exitDy=0;exitPerimeter=0;" parent="2" source="28" target="31" edge="1">
                    <mxGeometry x="0.231" y="-50" relative="1" as="geometry">
                        <mxPoint x="37.5" y="285" as="sourcePoint"/>
                        <Array as="points">
                            <mxPoint x="62" y="285"/>
                            <mxPoint x="30" y="285"/>
                            <mxPoint x="30" y="305"/>
                        </Array>
                        <mxPoint as="offset"/>
                    </mxGeometry>
                </mxCell>
                <mxCell id="33" value="" style="shape=flexArrow;endArrow=classic;startArrow=classic;html=1;" parent="2" edge="1">
                    <mxGeometry width="100" height="100" relative="1" as="geometry">
                        <mxPoint x="67.5" y="360" as="sourcePoint"/>
                        <mxPoint x="327.5" y="360" as="targetPoint"/>
                        <Array as="points">
                            <mxPoint x="177.5" y="360"/>
                            <mxPoint x="237.5" y="360"/>
                        </Array>
                    </mxGeometry>
                </mxCell>
                <mxCell id="34" value="TCP Socket [6222]" style="edgeLabel;html=1;align=center;verticalAlign=middle;resizable=0;points=[];" parent="33" vertex="1" connectable="0">
                    <mxGeometry x="-0.0423" relative="1" as="geometry">
                        <mxPoint x="6" as="offset"/>
                    </mxGeometry>
                </mxCell>
                <mxCell id="4" value="Client" style="shape=umlLifeline;perimeter=lifelinePerimeter;whiteSpace=wrap;html=1;container=1;collapsible=0;recursiveResize=0;outlineConnect=0;" parent="1" vertex="1">
                    <mxGeometry x="665" y="80" width="100" height="520" as="geometry"/>
                </mxCell>
                <mxCell id="7" value="" style="html=1;points=[];perimeter=orthogonalPerimeter;fillColor=strokeColor;" parent="4" vertex="1">
                    <mxGeometry x="48" y="90" width="5" height="20" as="geometry"/>
                </mxCell>
                <mxCell id="12" value="" style="html=1;points=[];perimeter=orthogonalPerimeter;fillColor=strokeColor;" parent="4" vertex="1">
                    <mxGeometry x="48" y="120" width="5" height="20" as="geometry"/>
                </mxCell>
                <mxCell id="15" value="" style="html=1;points=[];perimeter=orthogonalPerimeter;fillColor=strokeColor;" parent="4" vertex="1">
                    <mxGeometry x="48" y="150" width="5" height="30" as="geometry"/>
                </mxCell>
                <mxCell id="21" value="" style="html=1;points=[];perimeter=orthogonalPerimeter;fillColor=strokeColor;" parent="4" vertex="1">
                    <mxGeometry x="47.5" y="210" width="5" height="70" as="geometry"/>
                </mxCell>
                <mxCell id="10" value="BT_Key_On" style="html=1;verticalAlign=bottom;labelBackgroundColor=none;endArrow=open;endFill=0;entryX=1.014;entryY=-0.009;entryDx=0;entryDy=0;entryPerimeter=0;" parent="1" source="4" target="9" edge="1">
                    <mxGeometry width="160" relative="1" as="geometry">
                        <mxPoint x="495" y="190" as="sourcePoint"/>
                        <mxPoint x="455" y="170" as="targetPoint"/>
                    </mxGeometry>
                </mxCell>
                <mxCell id="13" value="BT_Key_On_Suc" style="html=1;verticalAlign=bottom;labelBackgroundColor=none;endArrow=open;endFill=0;exitX=1.111;exitY=0.033;exitDx=0;exitDy=0;exitPerimeter=0;entryX=-0.267;entryY=0.061;entryDx=0;entryDy=0;entryPerimeter=0;" parent="1" source="11" target="12" edge="1">
                    <mxGeometry width="160" relative="1" as="geometry">
                        <mxPoint x="724.5" y="179.82000000000005" as="sourcePoint"/>
                        <mxPoint x="447.56999999999994" y="179.82000000000005" as="targetPoint"/>
                    </mxGeometry>
                </mxCell>
                <mxCell id="17" value="SSID [wifi_ssid]" style="html=1;verticalAlign=bottom;labelBackgroundColor=none;endArrow=open;endFill=0;entryX=-0.046;entryY=0.038;entryDx=0;entryDy=0;entryPerimeter=0;exitX=1.208;exitY=0.038;exitDx=0;exitDy=0;exitPerimeter=0;" parent="1" source="16" target="15" edge="1">
                    <mxGeometry width="160" relative="1" as="geometry">
                        <mxPoint x="435.00499999999994" y="229.99999999999997" as="sourcePoint"/>
                        <mxPoint x="708.615" y="230.55999999999992" as="targetPoint"/>
                    </mxGeometry>
                </mxCell>
                <mxCell id="18" value="$OK$" style="html=1;verticalAlign=bottom;labelBackgroundColor=none;endArrow=open;endFill=0;entryX=1.208;entryY=0.038;entryDx=0;entryDy=0;entryPerimeter=0;exitX=-0.046;exitY=1.026;exitDx=0;exitDy=0;exitPerimeter=0;" parent="1" source="15" target="19" edge="1">
                    <mxGeometry width="160" relative="1" as="geometry">
                        <mxPoint x="695" y="261" as="sourcePoint"/>
                        <mxPoint x="515" y="260" as="targetPoint"/>
                    </mxGeometry>
                </mxCell>
                <mxCell id="23" value="PSWE [wifi_pass]" style="html=1;verticalAlign=bottom;labelBackgroundColor=none;endArrow=open;endFill=0;entryX=-0.177;entryY=0.019;entryDx=0;entryDy=0;entryPerimeter=0;exitX=0.9;exitY=0.019;exitDx=0;exitDy=0;exitPerimeter=0;" parent="1" source="20" target="21" edge="1">
                    <mxGeometry width="160" relative="1" as="geometry">
                        <mxPoint x="445" y="290" as="sourcePoint"/>
                        <mxPoint x="719.23" y="290.38" as="targetPoint"/>
                    </mxGeometry>
                </mxCell>
                <mxCell id="24" value="$OK$" style="html=1;verticalAlign=bottom;labelBackgroundColor=none;endArrow=open;endFill=0;entryX=0.9;entryY=0.019;entryDx=0;entryDy=0;entryPerimeter=0;" parent="1" source="4" target="25" edge="1">
                    <mxGeometry width="160" relative="1" as="geometry">
                        <mxPoint x="709.23" y="320.02" as="sourcePoint"/>
                        <mxPoint x="435" y="320" as="targetPoint"/>
                    </mxGeometry>
                </mxCell>
                <mxCell id="26" value="ack" style="html=1;verticalAlign=bottom;labelBackgroundColor=none;endArrow=open;endFill=0;exitX=0.977;exitY=1.019;exitDx=0;exitDy=0;exitPerimeter=0;" parent="1" source="25" target="21" edge="1">
                    <mxGeometry width="160" relative="1" as="geometry">
                        <mxPoint x="445" y="339.53" as="sourcePoint"/>
                        <mxPoint x="719.6150000000001" y="340.48" as="targetPoint"/>
                    </mxGeometry>
                </mxCell>
                <mxCell id="27" value="ID1234" style="html=1;verticalAlign=bottom;labelBackgroundColor=none;endArrow=open;endFill=0;entryX=0.818;entryY=0.01;entryDx=0;entryDy=0;entryPerimeter=0;" parent="1" target="28" edge="1">
                    <mxGeometry width="160" relative="1" as="geometry">
                        <mxPoint x="712.5" y="360" as="sourcePoint"/>
                        <mxPoint x="435" y="360" as="targetPoint"/>
                    </mxGeometry>
                </mxCell>
                <mxCell id="35" value="" style="html=1;align=center;verticalAlign=top;rounded=1;absoluteArcSize=1;arcSize=20;dashed=1;fillColor=none;strokeColor=#66FFFF;" parent="1" vertex="1">
                    <mxGeometry x="325" y="140" width="520" height="260" as="geometry"/>
                </mxCell>
                <mxCell id="36" value="Bluetooth LE" style="text;html=1;strokeColor=none;fillColor=none;align=center;verticalAlign=middle;whiteSpace=wrap;rounded=0;" parent="1" vertex="1">
                    <mxGeometry x="335" y="150" width="60" height="30" as="geometry"/>
                </mxCell>
                <mxCell id="37" value="" style="html=1;align=center;verticalAlign=top;rounded=1;absoluteArcSize=1;arcSize=20;dashed=1;fillColor=none;strokeColor=#B3FF66;fontColor=#ffffff;" parent="1" vertex="1">
                    <mxGeometry x="325" y="414" width="520" height="260" as="geometry"/>
                </mxCell>
                <mxCell id="38" value="WiFi" style="text;html=1;strokeColor=none;fillColor=none;align=center;verticalAlign=middle;whiteSpace=wrap;rounded=0;" parent="1" vertex="1">
                    <mxGeometry x="335" y="430" width="60" height="30" as="geometry"/>
                </mxCell>
            </root>
        </mxGraphModel>
    </diagram>
</mxfile>